{"title":"Cinemawala (2016) - 1CD - DVDRip - x264 - AAC - ESub - DDR","uid":15455850,"size":758473449,"categoryP":"video","categoryS":"movies","magnet":"?xt=urn:btih:45b2341675719411bb52fe65336f590361f126d1&amp;dn=Cinemawala+%282016%29+-+1CD+-+DVDRip+-+x264+-+AAC+-+ESub+-+DDR&amp;tr=udp%3A%2F%2Ftracker.leechers-paradise.org%3A6969&amp;tr=udp%3A%2F%2Fzer0day.ch%3A1337&amp;tr=udp%3A%2F%2Fopen.demonii.com%3A1337&amp;tr=udp%3A%2F%2Ftracker.coppersurfer.tk%3A6969&amp;tr=udp%3A%2F%2Fexodus.desync.com%3A6969","seeders":17,"leechers":11,"uploader":"SaM","files":19,"time":1469984270,"description":"(A film by Kaushik Ganguly)\r\n\r\n\r\n\r\n\r\nDVD Rip - x264 - Eng Sub - Chapters\r\n\r\n5.1 AAC - MKV - 700 MB\r\n\r\n*2016*\r\n\r\n\r\n\r\n! || |= ®\r\n\r\n\r\nFormat : Matroska\r\nFormat version : Version 4 / Version 2\r\nFile size : 702 MiB\r\nDuration : 1h 44mn\r\nOverall bit rate : 938 Kbps\r\nMovie name : Digital Desi Releasers [DDR] - Cinemawala (2016)\r\nEncoded date : UTC 2016-07-29 21:29:06\r\nWriting application : mkvmerge v9.2.0 ('Photograph') 64bit\r\nWriting library : libebml v1.3.3 + libmatroska v1.4.4\r\n\r\nVideo\r\nID : 1\r\nFormat : AVC\r\nFormat/Info : Advanced Video Codec\r\nFormat profile :   \r\nFormat settings, CABAC : Yes\r\nFormat settings, ReFrames : 8 frames\r\nCodec ID : V_MPEG4/ISO/AVC\r\nDuration : 1h 44mn\r\nBit rate : 808 Kbps\r\nWidth : 720 pixels\r\nHeight : 304 pixels\r\nDisplay aspect ratio : 2.35:1\r\nFrame rate mode : Constant\r\nFrame rate : 23.976 (24000/1001) fps\r\ncolor space : YUV\r\nChroma subsampling : 4:2:0\r\nBit depth : 8 bits\r\nScan type : Progressive\r\nBits/(Pixel*Frame) : 0.154\r\nStream size : 604 MiB (86%)\r\nWriting library : x264 core 148 r2692 64f4e24\r\n\r\nLanguage : Bengali\r\nDefault : Yes\r\nForced : No\r\n\r\nAudio\r\nID : 2\r\nFormat : AAC\r\nFormat/Info : Advanced Audio Codec\r\nFormat profile : LC\r\nCodec ID : A_AAC\r\nDuration : 1h 44mn\r\nBit rate : 128 Kbps\r\nChannel(s) : 6 channels\r\nChannel positions : Front: L C R, Side: L R, LFE\r\nSampling rate : 48.0 KHz\r\nFrame rate : 46.875 fps (1024 spf)\r\nCompression mode : Lossy\r\nDelay relative to video : 9ms\r\nStream size : 95.5 MiB (14%)\r\nLanguage : Bengali\r\nDefault : Yes\r\nForced : No\r\n\r\nText\r\nID : 3\r\nFormat : VobSub\r\nMuxing mode : zlib\r\nCodec ID : S_VOBSUB\r\nCodec ID/Info : Picture based subtitle format used on DVDs\r\nDuration : 1h 39mn\r\nBit rate : 1 286 bps\r\nCount of elements : 912\r\nStream size : 936 KiB (0%)\r\nLanguage : English\r\nDefault : Yes\r\nForced : No\r\n\r\nMenu\r\n00:00:00.000 : en:Chapter 01\r\n00:14:44.000 : en:Chapter 02\r\n00:33:53.000 : en:Chapter 03\r\n00:58:55.500 : en:Chapter 04\r\n01:01:32.000 : en:Chapter 05\r\n01:22:58.000 : en:Chapter 06\r\n01:25:10.000 : en:Chapter 07\r\n01:32:40.000 : en:Chapter 08\r\n01:35:14.500 : en:Chapter 09\r\n01:41:44.500 : en:Chapter 10\r\n01:44:33.700 : en:Chapter 11\r\n \nhttp://extraimago.com/image/w8o3 \nhttp://extraimago.com/image/w8ob \nhttp://extraimago.com/image/w8oh \nhttp://extraimago.com/image/w8od \nhttp://extraimago.com/image/w8oI \nhttp://extraimago.com/image/w8ol \nhttp://extraimago.com/image/w8oi \nhttp://extraimago.com/image/w8om \nhttp://extraimago.com/image/w8oR \nhttp://extraimago.com/image/w8oQ \nhttp://extraimago.com/image/w8oL \nhttp://extraimago.com/image/w8oy \nhttp://extraimago.com/image/w8oq \nhttp://extraimago.com/image/w8oS \nhttp://extraimago.com/image/w8oO","torrent":{"xt":"urn:btih:45b2341675719411bb52fe65336f590361f126d1","amp;dn":"Cinemawala+%282016%29+-+1CD+-+DVDRip+-+x264+-+AAC+-+ESub+-+DDR","amp;tr":["udp%3A%2F%2Ftracker.leechers-paradise.org%3A6969","udp%3A%2F%2Fzer0day.ch%3A1337","udp%3A%2F%2Fopen.demonii.com%3A1337","udp%3A%2F%2Ftracker.coppersurfer.tk%3A6969","udp%3A%2F%2Fexodus.desync.com%3A6969"],"infoHash":"45b2341675719411bb52fe65336f590361f126d1","infoHashBuffer":{"type":"Buffer","data":[69,178,52,22,117,113,148,17,187,82,254,101,51,111,89,3,97,241,38,209]},"announce":[],"urlList":[]}}